HIERARCHY
ROOT hip
{
  OFFSET 0 0 0
  CHANNELS 6 Xposition Yposition Zposition Zrotation Yrotation Xrotation
  JOINT abdomen
  {
    OFFSET 0 20.6881 -0.73152
    CHANNELS 3 Zrotation Xrotation Yrotation
    JOINT chest
    {
      OFFSET 0 11.7043 -0.48768
      CHANNELS 3 Zrotation Xrotation Yrotation
      JOINT neck
      {
        OFFSET 0 22.1894 -2.19456
        CHANNELS 3 Zrotation Xrotation Yrotation
        JOINT head
        {
          OFFSET -0.24384 7.07133 1.2192
          CHANNELS 3 Zrotation Xrotation Yrotation
          JOINT leftEye
          {
            OFFSET 4.14528 8.04674 8.04672
            CHANNELS 3 Zrotation Xrotation Yrotation
            End Site
            {
              OFFSET 1 0 0
            }
          }
          JOINT rightEye
          {
            OFFSET -3.6576 8.04674 8.04672
            CHANNELS 3 Zrotation Xrotation Yrotation
            End Site
            {
              OFFSET 1 0 0
            }
          }
        }
      }
      JOINT rCollar
      {
        OFFSET -2.68224 19.2634 -4.8768
        CHANNELS 3 Zrotation Xrotation Yrotation
        JOINT rShldr
        {
          OFFSET -8.77824 -1.95073 1.46304
          CHANNELS 3 Zrotation Xrotation Yrotation
          JOINT rForeArm
          {
            OFFSET -28.1742 -1.7115 0.48768
            CHANNELS 3 Zrotation Xrotation Yrotation
            JOINT rHand
            {
              OFFSET -22.5879 0.773209 7.07136
              CHANNELS 3 Zrotation Xrotation Yrotation
              JOINT rThumb1
              {
                OFFSET -1.2192 -0.487915 3.41376
                CHANNELS 3 Zrotation Xrotation Yrotation
                JOINT rThumb2
                {
                  OFFSET -3.37035 -0.52449 3.41376
                  CHANNELS 3 Zrotation Xrotation Yrotation
                  End Site
                  {
                    OFFSET -1.78271 -1.18214 1.43049
                  }
                }
              }
              JOINT rIndex1
              {
                OFFSET -7.75947 0.938293 5.60832
                CHANNELS 3 Zrotation Xrotation Yrotation
                JOINT rIndex2
                {
                  OFFSET -2.54057 -0.884171 1.56538
                  CHANNELS 3 Zrotation Xrotation Yrotation
                  End Site
                  {
                    OFFSET -1.62519 -0.234802 1.16502
                  }
                }
              }
              JOINT rMid1
              {
                OFFSET -8.24714 1.18213 3.41376
                CHANNELS 3 Zrotation Xrotation Yrotation
                JOINT rMid2
                {
                  OFFSET -3.10165 -0.590103 1.0647
                  CHANNELS 3 Zrotation Xrotation Yrotation
                  End Site
                  {
                    OFFSET -2.48547 -0.328903 0.83742
                  }
                }
              }
              JOINT rRing1
              {
                OFFSET -8.82822 0.546677 1.51678
                CHANNELS 3 Zrotation Xrotation Yrotation
                JOINT rRing2
                {
                  OFFSET -2.60934 -0.819778 -0.0198488
                  CHANNELS 3 Zrotation Xrotation Yrotation
                  End Site
                  {
                    OFFSET -2.33842 -0.294052 0.168128
                  }
                }
              }
              JOINT rPinky1
              {
                OFFSET -8.27202 -0.0477905 -0.4584
                CHANNELS 3 Zrotation Xrotation Yrotation
                JOINT rPinky2
                {
                  OFFSET -1.82734 -0.647385 -0.700984
                  CHANNELS 3 Zrotation Xrotation Yrotation
                  End Site
                  {
                    OFFSET -1.69225 -0.51767 -0.607171
                  }
                }
              }
            }
          }
        }
      }
      JOINT lCollar
      {
        OFFSET 2.68224 19.2634 -4.8768
        CHANNELS 3 Zrotation Xrotation Yrotation
        JOINT lShldr
        {
          OFFSET 8.77824 -1.95073 1.46304
          CHANNELS 3 Zrotation Xrotation Yrotation
          JOINT lForeArm
          {
            OFFSET 28.1742 -1.7115 0.48768
            CHANNELS 3 Zrotation Xrotation Yrotation
            JOINT lHand
            {
              OFFSET 22.5879 0.773209 7.07136
              CHANNELS 3 Zrotation Xrotation Yrotation
              JOINT lThumb1
              {
                OFFSET 1.2192 -0.487915 3.41376
                CHANNELS 3 Zrotation Xrotation Yrotation
                JOINT lThumb2
                {
                  OFFSET 3.37035 -0.52449 3.41376
                  CHANNELS 3 Zrotation Xrotation Yrotation
                  End Site
                  {
                    OFFSET 1.78271 -1.18214 1.43049
                  }
                }
              }
              JOINT lIndex1
              {
                OFFSET 7.75947 0.938293 5.60832
                CHANNELS 3 Zrotation Xrotation Yrotation
                JOINT lIndex2
                {
                  OFFSET 2.54057 -0.884171 1.56538
                  CHANNELS 3 Zrotation Xrotation Yrotation
                  End Site
                  {
                    OFFSET 1.62519 -0.234802 1.16502
                  }
                }
              }
              JOINT lMid1
              {
                OFFSET 8.24714 1.18213 3.41376
                CHANNELS 3 Zrotation Xrotation Yrotation
                JOINT lMid2
                {
                  OFFSET 3.10165 -0.590103 1.0647
                  CHANNELS 3 Zrotation Xrotation Yrotation
                  End Site
                  {
                    OFFSET 2.48547 -0.328903 0.83742
                  }
                }
              }
              JOINT lRing1
              {
                OFFSET 8.82822 0.546677 1.51678
                CHANNELS 3 Zrotation Xrotation Yrotation
                JOINT lRing2
                {
                  OFFSET 2.60934 -0.819778 -0.0198488
                  CHANNELS 3 Zrotation Xrotation Yrotation
                  End Site
                  {
                    OFFSET 2.33842 -0.294052 0.168128
                  }
                }
              }
              JOINT lPinky1
              {
                OFFSET 8.27202 -0.0477905 -0.4584
                CHANNELS 3 Zrotation Xrotation Yrotation
                JOINT lPinky2
                {
                  OFFSET 1.82734 -0.647385 -0.700984
                  CHANNELS 3 Zrotation Xrotation Yrotation
                  End Site
                  {
                    OFFSET 1.69225 -0.51767 -0.607171
                  }
                }
              }
            }
          }
        }
      }
    }
  }
  JOINT rButtock
  {
    OFFSET -8.77824 4.35084 1.2192
    CHANNELS 3 Zrotation Xrotation Yrotation
    JOINT rThigh
    {
      OFFSET 0 -1.70687 -2.19456
      CHANNELS 3 Zrotation Xrotation Yrotation
      JOINT rShin
      {
        OFFSET 0 -36.8199 0.73152
        CHANNELS 3 Zrotation Xrotation Yrotation
        JOINT rFoot
        {
          OFFSET 0.73152 -45.1104 -5.12064
          CHANNELS 3 Zrotation Xrotation Yrotation
          End Site
          {
            OFFSET -1.1221 -3.69964 12.103
          }
        }
      }
    }
  }
  JOINT lButtock
  {
    OFFSET 8.77824 4.35084 1.2192
    CHANNELS 3 Zrotation Xrotation Yrotation
    JOINT lThigh
    {
      OFFSET 0 -1.70687 -2.19456
      CHANNELS 3 Zrotation Xrotation Yrotation
      JOINT lShin
      {
        OFFSET 0 -36.8199 0.73152
        CHANNELS 3 Zrotation Xrotation Yrotation
        JOINT lFoot
        {
          OFFSET -0.73152 -45.1104 -5.12064
          CHANNELS 3 Zrotation Xrotation Yrotation
          End Site
          {
            OFFSET 1.1221 -3.69964 12.103
          }
        }
      }
    }
  }
}
MOTION
Frames:	4
Frame Time:	0.03333
0.011112727224826813 61.80012822151184 0.12132497504353523 -2.3945415019989014 2.3583569526672363 5.762959003448486 -2.347414493560791 13.740030288696289 3.0829737186431885 3.1581835746765137 -9.109197616577148 0.981139063835144 -5.68848991394043 14.861412048339844 -5.3412861824035645 8.588519096374512 -24.54054069519043 -7.9202561378479 -0.11003518104553223 -0.09964164346456528 0.0075377714820206165 0.13845324516296387 0.03998660668730736 -0.07942987978458405 0.03452615812420845 -0.008839196525514126 -0.055282462388277054 52.399986267089844 38.05791091918945 10.477635383605957 -28.12936782836914 -31.44065284729004 69.57735443115234 0.07071805000305176 2.099757671356201 0.10631529986858368 -0.004650596994906664 -0.051158607006073 -0.02310357242822647 0.03297607973217964 0.06750117987394333 -0.055989500135183334 0.027219343930482864 -0.069539874792099 0.06269198656082153 7.727183818817139 5.471489429473877 0.4035593271255493 -0.014625154435634613 0.008278440684080124 0.011236880905926228 2.9241788387298584 0.9836195111274719 0.16829119622707367 -0.04584793746471405 0.025489268824458122 0.012144173495471478 10.32807731628418 0.72401362657547 0.07487515360116959 0.08110779523849487 0.10165585577487946 0.010734699666500092 2.328073024749756 -0.7788674235343933 -0.1864824891090393 0.021684158593416214 -0.12086106091737747 0.0650486871600151 -58.030731201171875 38.77189254760742 -22.06009864807129 28.282621383666992 -33.916812896728516 -73.66513061523438 0.3429185450077057 -18.017414093017578 2.625340461730957 -0.017222648486495018 -0.02985803782939911 0.007368339691311121 -0.01574030891060829 -0.05950314551591873 0.06936738640069962 -0.02114437334239483 -0.07829201221466064 0.062016602605581284 -7.837863922119141 5.563117980957031 -0.42040637135505676 -0.002521062968298793 -0.0033594255801290274 0.013141120783984661 -2.8839950561523438 0.9730295538902283 -0.1407759040594101 0.028863202780485153 -0.020266881212592125 -0.011922831647098064 -10.174129486083984 0.7188804745674133 -0.0779629722237587 -0.012761726975440979 -0.08531409502029419 -0.046283576637506485 -2.1252543926239014 -0.7443501949310303 0.21841655671596527 0.030580470338463783 -0.04424847289919853 -0.04241446778178215 -28.30068016052246 -44.39240646362305 -23.663585662841797 -1.3351495265960693 66.9561767578125 1.9517954587936401 -4.92189359664917 -12.318319320678711 -13.515530586242676 0.00012515217531472445 0.04670131206512451 0.021539587527513504 34.51708984375 -44.168453216552734 27.186342239379883 1.6553107500076294 69.87383270263672 -2.281301498413086 4.363417625427246 -11.16066837310791 14.095964431762695
0.08352696895599365 62.24893927574158 0.07760962471365929 -2.179114818572998 1.0034301280975342 5.258424758911133 -2.1810524463653564 13.751843452453613 2.7573297023773193 2.977932929992676 -8.993858337402344 0.9734517335891724 -5.446447849273682 14.950972557067871 -5.366912841796875 8.011662483215332 -24.17544937133789 -8.178568840026855 -0.10751902312040329 -0.05383245646953583 0.08337926864624023 0.166377991437912 0.027243364602327347 -0.0581696592271328 0.02290605939924717 0.028641387820243835 -0.038765888661146164 53.956512451171875 37.180938720703125 8.502496719360352 -28.242908477783203 -31.369510650634766 69.61695098876953 0.19481080770492554 1.8327372074127197 -0.10734736919403076 -0.09693323820829391 -0.022485874593257904 -0.03641973435878754 0.0018114570993930101 0.05559602752327919 -0.07575298845767975 -0.02693795971572399 -0.1076572835445404 0.07238968461751938 7.721716403961182 5.416374683380127 0.43536898493766785 0.011828719638288021 -0.05653097853064537 0.04343155398964882 2.898973226547241 0.9477199912071228 0.17843754589557648 0.010217555798590183 0.028746001422405243 -0.006142055615782738 10.252129554748535 0.7797501683235168 0.0926467776298523 0.0030845103319734335 0.02611236274242401 -0.01488108467310667 2.30295729637146 -0.7695211172103882 -0.11653202772140503 0.0370391309261322 -0.017813729122281075 0.0629749670624733 -58.46076583862305 39.362701416015625 -20.80416488647461 28.207189559936523 -33.40024185180664 -73.02377319335938 0.16091452538967133 -16.371667861938477 2.469572067260742 -0.08183838427066803 -0.000596330501139164 0.026746995747089386 0.009041658602654934 -0.009746694006025791 0.020514577627182007 -0.006692809518426657 0.007358835078775883 0.05836508050560951 -7.767822265625 5.565524578094482 -0.4302976131439209 0.05870009958744049 -0.021459076553583145 0.006383910309523344 -2.896106004714966 1.059084415435791 -0.061378758400678635 0.019421782344579697 -0.0605708509683609 0.0046608601696789265 -10.27595329284668 0.6622748374938965 -0.0592292845249176 -0.0758197233080864 -0.06999171525239944 0.0003445885085966438 -2.1406664848327637 -0.7627255320549011 0.21068385243415833 0.005169327836483717 0.006535389460623264 -0.03675684332847595 -27.79013442993164 -43.566802978515625 -22.81654167175293 -1.048953652381897 66.74100494384766 1.657523274421692 -5.3837385177612305 -13.084190368652344 -13.967851638793945 0.0300604235380888 0.04545651003718376 0.019371798262000084 33.36661911010742 -43.59874725341797 26.71914291381836 1.2343847751617432 69.91651916503906 -1.7514913082122803 4.224716663360596 -10.185136795043945 14.024619102478027
0.12114588171243668 64.48628306388855 -0.7719497196376324 47.447418212890625 3.7796502113342285 -28.4887638092041 -6.434597969055176 34.09221649169922 8.09830093383789 -4.488465785980225 -11.58106803894043 1.5456469058990479 -1.6528956890106201 14.825200080871582 7.73702335357666 -0.36609897017478943 -36.7598762512207 18.230653762817383 -0.08881160616874695 0.08736129850149155 -0.0708005279302597 0.04574966803193092 -0.11764884740114212 -0.05650102719664574 0.011690526269376278 0.03558558598160744 -0.12332392483949661 12.698643684387207 27.799524307250977 46.46910858154297 -25.356382369995117 -21.006799697875977 52.97773742675781 0.3990284204483032 -8.054012298583984 -1.3973678350448608 0.0014057774096727371 0.0364164263010025 -0.13779443502426147 -0.18415109813213348 0.049050189554691315 0.07479101419448853 -0.0003143046051263809 -0.04735029861330986 0.11686481535434723 7.833268642425537 5.479666709899902 0.3446420729160309 -0.08478303253650665 -0.08014974743127823 -0.016660483554005623 2.871208429336548 0.8256949186325073 0.04619823768734932 -0.0011270371032878757 -0.019590914249420166 -0.10923605412244797 10.2523193359375 0.7008535265922546 0.11000801622867584 0.12494461983442307 -0.030718980357050896 -0.1603027731180191 2.276322841644287 -0.6673492193222046 -0.14585469663143158 0.10525771230459213 0.027553973719477654 0.04059096425771713 -62.53670120239258 8.625518798828125 -15.430140495300293 25.811525344848633 -22.484678268432617 -56.28422164916992 0.6294667720794678 -26.977645874023438 3.5999319553375244 0.026251021772623062 -0.14733058214187622 -0.21770986914634705 -0.04991023615002632 0.045209430158138275 0.03332597762346268 0.0010952206794172525 0.03927525877952576 0.12062375247478485 -7.794098854064941 5.471435070037842 -0.38596397638320923 0.06281193345785141 -0.12330730259418488 -0.019983479753136635 -2.885158061981201 0.9452537298202515 -0.1775732785463333 0.03978630155324936 0.03731532767415047 -0.1626020222902298 -10.224759101867676 0.67743319272995 -0.06504597514867783 -0.056231725960969925 -0.039009615778923035 0.06877156347036362 -2.166555643081665 -0.6858195066452026 0.2129611372947693 0.029756294563412666 0.061234500259160995 0.0015135188587009907 -24.702381134033203 -34.31782913208008 -8.72546100616455 -0.046624377369880676 34.90010070800781 0.1229729875922203 -0.42933687567710876 7.317235469818115 -15.999048233032227 0.13012875616550446 -0.1769668310880661 -0.0010211074259132147 94.5484848022461 -62.86869430541992 55.69010543823242 2.068267345428467 71.67304992675781 -2.896118402481079 -3.5926287174224854 14.142748832702637 14.30617904663086
0.06215590983629227 69.23304200172424 -2.287556603550911 42.19114303588867 5.0308380126953125 -22.336647033691406 -7.411530494689941 34.742042541503906 7.053997993469238 -5.375077247619629 -11.870841979980469 0.858981728553772 -1.3708717823028564 15.489985466003418 9.159812927246094 -1.9424102306365967 -38.48743438720703 18.96387481689453 -0.15247763693332672 0.11521684378385544 -0.07326895743608475 0.06871373951435089 -0.047189075499773026 0.05155584588646889 0.09636536985635757 0.23137357831001282 0.006702415645122528 9.401847839355469 26.69696617126465 49.502525329589844 -24.91961097717285 -20.871740341186523 52.53819274902344 0.2989715337753296 -9.228866577148438 -1.6859110593795776 -0.02515748329460621 0.0003365997690707445 -0.1609862595796585 -0.21147480607032776 0.08403700590133667 0.1970902979373932 0.13594001531600952 0.01414933055639267 -0.06970448791980743 7.949683666229248 5.687706470489502 0.20270004868507385 -0.051472000777721405 -0.14793027937412262 -0.13378889858722687 2.8432822227478027 0.8083209991455078 0.07413481920957565 -0.009456316940486431 -0.04753042757511139 -0.07568801939487457 10.214072227478027 0.8001049757003784 0.204751119017601 0.15746739506721497 -0.12300895154476166 -0.1430363953113556 2.1992924213409424 -0.654017984867096 -0.09672313928604126 0.06234588101506233 -0.06504495441913605 0.03159751370549202 -62.90090560913086 6.297057151794434 -17.824594497680664 25.339799880981445 -21.89003562927246 -55.00352096557617 0.3887346684932709 -28.0827579498291 3.6658477783203125 0.13498833775520325 -0.1456945687532425 -0.34646743535995483 -0.047413263469934464 -0.0774155929684639 0.09499569982290268 0.002510466380044818 -0.009138266555964947 0.1513202041387558 -7.849515438079834 5.481893062591553 -0.5984014272689819 0.08414306491613388 -0.3933783173561096 -0.13303278386592865 -2.9860141277313232 0.9324271082878113 -0.16958487033843994 -0.04228180646896362 -0.026988977566361427 -0.14147624373435974 -10.267536163330078 0.6978058218955994 -0.050486356019973755 -0.14611339569091797 -0.14337828755378723 0.2090536504983902 -2.1951212882995605 -0.6120994687080383 0.31749963760375977 0.0892186164855957 0.05833444371819496 0.2121599167585373 -22.807174682617188 -35.64469909667969 -16.617782592773438 -0.013551272451877594 28.89755630493164 -0.025483589619398117 -0.5448684692382812 5.479661464691162 -21.17231559753418 0.15836167335510254 -0.23387572169303894 -0.12313074618577957 116.16011810302734 -60.10136413574219 70.75260925292969 0.5911903977394104 68.4668197631836 -1.647404670715332 -3.533597946166992 15.328717231750488 16.398128509521484
